# This file uses centimeters as units for non-parametric coordinates.

mtllib FrontBumper.mtl
g default
v -3.435114 -0.336725 -11.280888
v -3.447522 -0.210865 -11.165003
v -3.173850 -0.210865 -11.210031
v -3.149033 -0.333383 -11.262134
v -3.435114 -0.090650 -11.167850
v -3.149033 -0.090650 -11.167850
v -3.995808 -0.090650 -11.222517
v -3.995808 -0.210865 -11.264477
v -3.995808 -0.340067 -11.354309
v -4.556502 -0.336725 -11.280888
v -4.842582 -0.333383 -11.262134
v -4.817766 -0.210865 -11.210031
v -4.544094 -0.210865 -11.165003
v -4.556502 -0.090650 -11.167850
v -4.842582 -0.090650 -11.167850
v -3.435643 -0.343255 -11.273333
v -3.148644 -0.338985 -11.253860
v -3.172923 -0.214562 -11.200786
v -3.447919 -0.214684 -11.155769
v -3.435541 -0.091227 -11.157876
v -3.148412 -0.092077 -11.157972
v -3.995808 -0.091136 -11.212529
v -3.995808 -0.215058 -11.255399
v -3.995808 -0.346865 -11.346975
v -4.555973 -0.343255 -11.273333
v -4.543696 -0.214684 -11.155769
v -4.818693 -0.214562 -11.200786
v -4.842971 -0.338985 -11.253860
v -4.556075 -0.091227 -11.157876
v -4.843204 -0.092077 -11.157972
vt 0.563636 0.437500
vt 0.625000 0.437500
vt 0.625000 0.500000
vt 0.563636 0.500000
vt 0.687500 0.500000
vt 0.625000 0.500000
vt 0.687500 0.500000
vt 0.750000 0.500000
vt 0.750000 0.500000
vt 0.563636 0.375000
vt 0.625000 0.375000
vt 0.563636 0.437500
vt 0.563636 0.500000
vt 0.625000 0.500000
vt 0.625000 0.437500
vt 0.687500 0.500000
vt 0.687500 0.500000
vt 0.625000 0.500000
vt 0.563636 0.437500
vt 0.563636 0.500000
vt 0.625000 0.500000
vt 0.625000 0.437500
vt 0.687500 0.500000
vt 0.687500 0.500000
vt 0.625000 0.500000
vt 0.750000 0.500000
vt 0.750000 0.500000
vt 0.563636 0.375000
vt 0.625000 0.375000
vt 0.563636 0.437500
vt 0.625000 0.437500
vt 0.625000 0.500000
vt 0.563636 0.500000
vt 0.687500 0.500000
vt 0.625000 0.500000
vt 0.687500 0.500000
vn -0.121118 0.665878 -0.736164
vn -0.009895 0.506072 -0.862434
vn -0.078183 0.607372 -0.790561
vn 0.055286 0.400215 -0.914752
vn -0.078999 0.172797 -0.981784
vn -0.078999 0.172797 -0.981784
vn -0.078999 0.172797 -0.981784
vn -0.078999 0.172797 -0.981784
vn 0.136105 0.152205 -0.978933
vn 0.136105 0.152205 -0.978933
vn 0.136105 0.152205 -0.978933
vn 0.136105 0.152205 -0.978933
vn 0.118198 0.626891 -0.770089
vn 0.118198 0.626891 -0.770089
vn 0.118198 0.626891 -0.770089
vn 0.118198 0.626891 -0.770089
vn 0.042300 0.555403 -0.830505
vn 0.042300 0.555403 -0.830505
vn 0.042300 0.555403 -0.830505
vn 0.042300 0.555403 -0.830505
vn 0.078999 0.172797 -0.981784
vn 0.078999 0.172797 -0.981784
vn 0.078999 0.172797 -0.981784
vn 0.078999 0.172797 -0.981784
vn -0.136105 0.152205 -0.978933
vn -0.136105 0.152205 -0.978933
vn -0.136105 0.152205 -0.978933
vn -0.136105 0.152205 -0.978933
vn -0.118198 0.626891 -0.770089
vn -0.118198 0.626891 -0.770089
vn -0.118198 0.626891 -0.770089
vn -0.118198 0.626891 -0.770089
vn 0.042101 -0.554508 0.831113
vn 0.042101 -0.554508 0.831113
vn 0.042101 -0.554508 0.831113
vn 0.042101 -0.554508 0.831113
vn 0.078498 -0.174196 0.981577
vn 0.078498 -0.174196 0.981577
vn 0.078498 -0.174196 0.981577
vn 0.078498 -0.174196 0.981577
vn -0.136197 -0.154396 0.978577
vn -0.136197 -0.154396 0.978577
vn -0.136197 -0.154396 0.978577
vn -0.136197 -0.154396 0.978577
vn -0.118403 -0.625215 0.771419
vn -0.118403 -0.625215 0.771419
vn -0.118403 -0.625215 0.771419
vn -0.118403 -0.625215 0.771419
vn -0.042101 -0.554508 0.831113
vn -0.042101 -0.554508 0.831113
vn -0.042101 -0.554508 0.831113
vn -0.042101 -0.554508 0.831113
vn -0.078498 -0.174196 0.981577
vn -0.078498 -0.174196 0.981577
vn -0.078498 -0.174196 0.981577
vn -0.078498 -0.174196 0.981577
vn 0.136197 -0.154396 0.978577
vn 0.136197 -0.154396 0.978577
vn 0.136197 -0.154396 0.978577
vn 0.136197 -0.154396 0.978577
vn 0.118403 -0.625215 0.771419
vn 0.118403 -0.625215 0.771419
vn 0.118403 -0.625215 0.771419
vn 0.118403 -0.625215 0.771419
s 1
g Red_low_poly_car_Car_Cube_002_Material_022
usemtl initialShadingGroup
f 2/2/1 3/3/2 1/1/3
f 1/1/3 3/3/2 4/4/4
s 2
f 6/6/5 3/3/6 5/5/7
f 5/5/7 3/3/6 2/7/8
s 3
f 5/5/9 2/7/10 7/8/11
f 7/8/11 2/7/10 8/9/12
s 4
f 9/10/13 8/11/14 1/1/15
f 1/1/15 8/11/14 2/2/16
s 5
f 11/13/17 12/14/18 10/12/19
f 10/12/19 12/14/18 13/15/20
s 6
f 13/17/21 12/14/22 14/16/23
f 14/16/23 12/14/22 15/18/24
s 7
f 8/9/25 13/17/26 7/8/27
f 7/8/27 13/17/26 14/16/28
s 8
f 9/10/29 10/12/30 8/11/31
f 8/11/31 10/12/30 13/15/32
s 9
f 17/20/33 18/21/34 16/19/35
f 16/19/35 18/21/34 19/22/36
s 10
f 19/24/37 18/21/38 20/23/39
f 20/23/39 18/21/38 21/25/40
s 11
f 23/27/41 19/24/42 22/26/43
f 22/26/43 19/24/42 20/23/44
s 12
f 24/28/45 16/19/46 23/29/47
f 23/29/47 16/19/46 19/22/48
s 13
f 26/31/49 27/32/50 25/30/51
f 25/30/51 27/32/50 28/33/52
s 14
f 30/35/53 27/32/54 29/34/55
f 29/34/55 27/32/54 26/36/56
s 15
f 29/34/57 26/36/58 22/26/59
f 22/26/59 26/36/58 23/27/60
s 16
f 24/28/61 23/29/62 25/30/63
f 25/30/63 23/29/62 26/31/64
g default
v -3.435114 -0.336725 -11.280888
v -3.447522 -0.210865 -11.165003
v -3.173850 -0.210865 -11.210031
v -3.149033 -0.333383 -11.262134
v -3.435114 -0.090650 -11.167850
v -3.149033 -0.090650 -11.167850
v -3.995808 -0.090650 -11.222517
v -3.995808 -0.210865 -11.264477
v -3.995808 -0.340067 -11.354309
v -4.556502 -0.336725 -11.280888
v -4.842582 -0.333383 -11.262134
v -4.817766 -0.210865 -11.210031
v -4.544094 -0.210865 -11.165003
v -4.556502 -0.090650 -11.167850
v -4.842582 -0.090650 -11.167850
v -3.435643 -0.343255 -11.273333
v -3.148644 -0.338985 -11.253860
v -3.172923 -0.214562 -11.200786
v -3.447919 -0.214684 -11.155769
v -3.435541 -0.091227 -11.157876
v -3.148412 -0.092077 -11.157972
v -3.995808 -0.091136 -11.212529
v -3.995808 -0.215058 -11.255399
v -3.995808 -0.346865 -11.346975
v -4.555973 -0.343255 -11.273333
v -4.543696 -0.214684 -11.155769
v -4.818693 -0.214562 -11.200786
v -4.842971 -0.338985 -11.253860
v -4.556075 -0.091227 -11.157876
v -4.843204 -0.092077 -11.157972
vt 0.563636 0.437500
vt 0.625000 0.437500
vt 0.625000 0.500000
vt 0.563636 0.500000
vt 0.687500 0.500000
vt 0.625000 0.500000
vt 0.687500 0.500000
vt 0.750000 0.500000
vt 0.750000 0.500000
vt 0.563636 0.375000
vt 0.625000 0.375000
vt 0.563636 0.437500
vt 0.563636 0.500000
vt 0.625000 0.500000
vt 0.625000 0.437500
vt 0.687500 0.500000
vt 0.687500 0.500000
vt 0.625000 0.500000
vt 0.563636 0.437500
vt 0.563636 0.500000
vt 0.625000 0.500000
vt 0.625000 0.437500
vt 0.687500 0.500000
vt 0.687500 0.500000
vt 0.625000 0.500000
vt 0.750000 0.500000
vt 0.750000 0.500000
vt 0.563636 0.375000
vt 0.625000 0.375000
vt 0.563636 0.437500
vt 0.625000 0.437500
vt 0.625000 0.500000
vt 0.563636 0.500000
vt 0.687500 0.500000
vt 0.625000 0.500000
vt 0.687500 0.500000
vn -0.121118 0.665878 -0.736164
vn -0.009895 0.506072 -0.862434
vn -0.078183 0.607372 -0.790561
vn 0.055286 0.400215 -0.914752
vn -0.078999 0.172797 -0.981784
vn -0.078999 0.172797 -0.981784
vn -0.078999 0.172797 -0.981784
vn -0.078999 0.172797 -0.981784
vn 0.136105 0.152205 -0.978933
vn 0.136105 0.152205 -0.978933
vn 0.136105 0.152205 -0.978933
vn 0.136105 0.152205 -0.978933
vn 0.118198 0.626891 -0.770089
vn 0.118198 0.626891 -0.770089
vn 0.118198 0.626891 -0.770089
vn 0.118198 0.626891 -0.770089
vn 0.042300 0.555403 -0.830505
vn 0.042300 0.555403 -0.830505
vn 0.042300 0.555403 -0.830505
vn 0.042300 0.555403 -0.830505
vn 0.078999 0.172797 -0.981784
vn 0.078999 0.172797 -0.981784
vn 0.078999 0.172797 -0.981784
vn 0.078999 0.172797 -0.981784
vn -0.136105 0.152205 -0.978933
vn -0.136105 0.152205 -0.978933
vn -0.136105 0.152205 -0.978933
vn -0.136105 0.152205 -0.978933
vn -0.118198 0.626891 -0.770089
vn -0.118198 0.626891 -0.770089
vn -0.118198 0.626891 -0.770089
vn -0.118198 0.626891 -0.770089
vn 0.042101 -0.554508 0.831113
vn 0.042101 -0.554508 0.831113
vn 0.042101 -0.554508 0.831113
vn 0.042101 -0.554508 0.831113
vn 0.078498 -0.174196 0.981577
vn 0.078498 -0.174196 0.981577
vn 0.078498 -0.174196 0.981577
vn 0.078498 -0.174196 0.981577
vn -0.136197 -0.154396 0.978577
vn -0.136197 -0.154396 0.978577
vn -0.136197 -0.154396 0.978577
vn -0.136197 -0.154396 0.978577
vn -0.118403 -0.625215 0.771419
vn -0.118403 -0.625215 0.771419
vn -0.118403 -0.625215 0.771419
vn -0.118403 -0.625215 0.771419
vn -0.042101 -0.554508 0.831113
vn -0.042101 -0.554508 0.831113
vn -0.042101 -0.554508 0.831113
vn -0.042101 -0.554508 0.831113
vn -0.078498 -0.174196 0.981577
vn -0.078498 -0.174196 0.981577
vn -0.078498 -0.174196 0.981577
vn -0.078498 -0.174196 0.981577
vn 0.136197 -0.154396 0.978577
vn 0.136197 -0.154396 0.978577
vn 0.136197 -0.154396 0.978577
vn 0.136197 -0.154396 0.978577
vn 0.118403 -0.625215 0.771419
vn 0.118403 -0.625215 0.771419
vn 0.118403 -0.625215 0.771419
vn 0.118403 -0.625215 0.771419
s 1
g Red_low_poly_car_Car_Cube_002_Material_022
f 32/38/65 33/39/66 31/37/67
f 31/37/67 33/39/66 34/40/68
s 2
f 36/42/69 33/39/70 35/41/71
f 35/41/71 33/39/70 32/43/72
s 3
f 35/41/73 32/43/74 37/44/75
f 37/44/75 32/43/74 38/45/76
s 4
f 39/46/77 38/47/78 31/37/79
f 31/37/79 38/47/78 32/38/80
s 5
f 41/49/81 42/50/82 40/48/83
f 40/48/83 42/50/82 43/51/84
s 6
f 43/53/85 42/50/86 44/52/87
f 44/52/87 42/50/86 45/54/88
s 7
f 38/45/89 43/53/90 37/44/91
f 37/44/91 43/53/90 44/52/92
s 8
f 39/46/93 40/48/94 38/47/95
f 38/47/95 40/48/94 43/51/96
s 9
f 47/56/97 48/57/98 46/55/99
f 46/55/99 48/57/98 49/58/100
s 10
f 49/60/101 48/57/102 50/59/103
f 50/59/103 48/57/102 51/61/104
s 11
f 53/63/105 49/60/106 52/62/107
f 52/62/107 49/60/106 50/59/108
s 12
f 54/64/109 46/55/110 53/65/111
f 53/65/111 46/55/110 49/58/112
s 13
f 56/67/113 57/68/114 55/66/115
f 55/66/115 57/68/114 58/69/116
s 14
f 60/71/117 57/68/118 59/70/119
f 59/70/119 57/68/118 56/72/120
s 15
f 59/70/121 56/72/122 52/62/123
f 52/62/123 56/72/122 53/63/124
s 16
f 54/64/125 53/65/126 55/66/127
f 55/66/127 53/65/126 56/67/128
