# This file uses centimeters as units for non-parametric coordinates.

mtllib windows.mtl
g default
v -3.409061 0.535838 -8.150981
v -2.822314 0.535838 -8.150981
v -3.273431 1.413866 -6.072062
v -2.325196 0.535838 -8.150981
v -2.848516 1.413866 -6.072062
v -3.634619 1.413866 -6.072062
v -4.582555 0.535838 -8.150981
v -3.995808 0.535838 -8.150981
v -5.169302 0.535838 -8.150981
v -4.718185 1.413866 -6.072062
v -5.666420 0.535838 -8.150981
v -5.143099 1.413866 -6.072062
v -4.356997 1.413866 -6.072062
v -3.995808 1.413866 -6.072062
v -3.409061 0.508202 -8.139310
v -2.822314 0.508202 -8.139310
v -3.273431 1.386230 -6.060390
v -2.325196 0.508202 -8.139310
v -2.848516 1.386230 -6.060390
v -3.634619 1.386230 -6.060390
v -4.582555 0.508202 -8.139310
v -3.995808 0.508202 -8.139310
v -5.169302 0.508202 -8.139310
v -4.718185 1.386230 -6.060390
v -5.666420 0.508202 -8.139310
v -5.143099 1.386230 -6.060390
v -4.356997 1.386230 -6.060390
v -3.995808 1.386230 -6.060390
v -5.560315 0.579838 -7.856372
v -5.669820 0.581589 -4.041298
v -5.096828 1.336083 -4.611410
v -5.115212 1.336704 -6.070038
v -5.622535 0.580833 -5.688676
v -5.104766 1.383539 -5.241257
v -5.535252 0.563367 -7.855676
v -5.645247 0.564382 -4.041226
v -5.072254 1.318876 -4.611338
v -5.090149 1.320233 -6.069342
v -5.597646 0.564090 -5.688209
v -5.080014 1.366591 -5.240963
v -2.431301 0.579838 -7.856372
v -2.321796 0.581589 -4.041298
v -2.894788 1.336083 -4.611410
v -2.876403 1.336704 -6.070038
v -2.369081 0.580833 -5.688676
v -2.886849 1.383539 -5.241257
v -2.456364 0.563367 -7.855676
v -2.346370 0.564382 -4.041226
v -2.919361 1.318876 -4.611338
v -2.901467 1.320233 -6.069342
v -2.393969 0.564090 -5.688209
v -2.911601 1.366591 -5.240963
vt 0.625000 0.750000
vt 0.687500 0.750000
vt 0.750000 0.750000
vt 0.687500 0.750000
vt 0.625000 0.750000
vt 0.625000 0.750000
vt 0.625000 0.750000
vt 0.625000 0.750000
vt 0.687500 0.750000
vt 0.750000 0.750000
vt 0.687500 0.750000
vt 0.625000 0.750000
vt 0.625000 0.750000
vt 0.625000 0.750000
vt 0.625000 0.750000
vt 0.625000 0.750000
vt 0.625000 0.750000
vt 0.625000 0.750000
vt 0.687500 0.750000
vt 0.750000 0.750000
vt 0.687500 0.750000
vt 0.625000 0.750000
vt 0.625000 0.750000
vt 0.625000 0.750000
vt 0.625000 0.750000
vt 0.687500 0.750000
vt 0.750000 0.750000
vt 0.687500 0.750000
vt 0.625000 0.750000
vt 0.625000 0.750000
vt 0.625000 0.750000
vt 0.625000 0.750000
vt 0.625000 0.750000
vt 0.625000 0.750000
vt 0.625000 0.750000
vt 0.625000 0.750000
vt 0.625000 0.750000
vt 0.625000 0.750000
vt 0.625000 0.750000
vt 0.625000 0.750000
vt 0.625000 0.750000
vt 0.625000 0.750000
vt 0.625000 0.750000
vt 0.625000 0.750000
vt 0.625000 0.750000
vt 0.625000 0.750000
vt 0.625000 0.750000
vt 0.625000 0.750000
vt 0.625000 0.750000
vt 0.625000 0.750000
vt 0.625000 0.750000
vt 0.625000 0.750000
vn 0.000000 0.921208 -0.389071
vn 0.000000 0.921208 -0.389071
vn 0.000000 0.921208 -0.389071
vn 0.000000 0.921208 -0.389071
vn 0.000000 0.921208 -0.389071
vn 0.000000 0.921208 -0.389071
vn 0.000000 0.921208 -0.389071
vn 0.000000 0.921208 -0.389071
vn 0.000000 0.921208 -0.389071
vn 0.000000 0.921208 -0.389071
vn 0.000000 0.921208 -0.389071
vn 0.000000 0.921208 -0.389071
vn 0.000000 0.921208 -0.389071
vn 0.000000 0.921208 -0.389071
vn 0.000000 -0.921196 0.389098
vn 0.000000 -0.921196 0.389098
vn 0.000000 -0.921196 0.389098
vn 0.000000 -0.921196 0.389098
vn 0.000000 -0.921196 0.389098
vn 0.000000 -0.921196 0.389098
vn 0.000000 -0.921196 0.389098
vn 0.000000 -0.921196 0.389098
vn 0.000000 -0.921196 0.389098
vn 0.000000 -0.921196 0.389098
vn 0.000000 -0.921196 0.389098
vn 0.000000 -0.921196 0.389098
vn 0.000000 -0.921196 0.389098
vn 0.000000 -0.921196 0.389098
vn 0.000000 -0.389014 -0.921232
vn 0.000000 -0.389014 -0.921232
vn 0.000000 -0.389014 -0.921232
vn 0.000000 -0.389014 -0.921232
vn 0.000000 -0.389014 -0.921232
vn 0.000000 -0.389014 -0.921232
vn 0.000000 -0.389014 -0.921232
vn 0.000000 -0.389014 -0.921232
vn 0.000000 0.389098 0.921196
vn 0.000000 0.389098 0.921196
vn 0.000000 0.389098 0.921196
vn 0.000000 0.389098 0.921196
vn 0.000000 0.389098 0.921196
vn 0.000000 0.389098 0.921196
vn 0.000000 0.389098 0.921196
vn 0.000000 0.389098 0.921196
vn 0.974153 0.087896 0.208090
vn 0.974153 0.087896 0.208090
vn 0.974153 0.087896 0.208090
vn 0.974153 0.087896 0.208090
vn 0.000000 -0.389014 -0.921232
vn 0.000000 -0.389014 -0.921232
vn 0.000000 -0.389014 -0.921232
vn 0.000000 -0.389014 -0.921232
vn 0.000000 0.389098 0.921196
vn 0.000000 0.389098 0.921196
vn 0.000000 0.389098 0.921196
vn 0.000000 0.389098 0.921196
vn 0.000000 -0.389014 -0.921232
vn 0.000000 -0.389014 -0.921232
vn 0.000000 -0.389014 -0.921232
vn 0.000000 -0.389014 -0.921232
vn 0.000000 -0.389014 -0.921232
vn 0.000000 -0.389014 -0.921232
vn 0.000000 -0.389014 -0.921232
vn 0.000000 -0.389014 -0.921232
vn 0.000000 0.389098 0.921196
vn 0.000000 0.389098 0.921196
vn 0.000000 0.389098 0.921196
vn 0.000000 0.389098 0.921196
vn 0.000000 0.389098 0.921196
vn 0.000000 0.389098 0.921196
vn 0.000000 0.389098 0.921196
vn 0.000000 0.389098 0.921196
vn -0.974153 0.087896 0.208090
vn -0.974153 0.087896 0.208090
vn -0.974153 0.087896 0.208090
vn -0.974153 0.087896 0.208090
vn 0.000000 -0.389014 -0.921232
vn 0.000000 -0.389014 -0.921232
vn 0.000000 -0.389014 -0.921232
vn 0.000000 -0.389014 -0.921232
vn 0.000000 0.389098 0.921196
vn 0.000000 0.389098 0.921196
vn 0.000000 0.389098 0.921196
vn 0.000000 0.389098 0.921196
vn -0.834912 0.550000 -0.020558
vn -0.835503 0.548990 -0.023347
vn -0.835520 0.548961 -0.023426
vn -0.835691 0.548665 -0.024239
vn -0.819122 0.573615 -0.002400
vn -0.819122 0.573615 -0.002400
vn -0.819122 0.573615 -0.002400
vn -0.819122 0.573615 -0.002400
vn 0.835500 -0.549000 0.023200
vn 0.835500 -0.549000 0.023200
vn 0.835500 -0.549000 0.023200
vn 0.835500 -0.549000 0.023200
vn 0.819122 -0.573615 0.002400
vn 0.819122 -0.573615 0.002400
vn 0.819122 -0.573615 0.002400
vn 0.819122 -0.573615 0.002400
vn -0.565726 -0.824438 -0.016001
vn -0.565726 -0.824438 -0.016001
vn -0.565726 -0.824438 -0.016001
vn -0.565726 -0.824438 -0.016001
vn 0.294303 0.423804 0.856608
vn 0.294303 0.423804 0.856608
vn 0.294303 0.423804 0.856608
vn 0.294303 0.423804 0.856608
vn 0.501582 0.744573 -0.440484
vn 0.501582 0.744573 -0.440484
vn 0.501582 0.744573 -0.440484
vn 0.501582 0.744573 -0.440484
vn 0.568109 0.821113 0.055001
vn 0.568109 0.821113 0.055001
vn 0.568109 0.821113 0.055001
vn 0.568109 0.821113 0.055001
vn -0.553386 -0.832779 -0.015600
vn -0.553386 -0.832779 -0.015600
vn -0.553386 -0.832779 -0.015600
vn -0.553386 -0.832779 -0.015600
vn 0.557063 0.828745 -0.053496
vn 0.557063 0.828745 -0.053496
vn 0.557063 0.828745 -0.053496
vn 0.557063 0.828745 -0.053496
vn 0.835691 0.548665 -0.024239
vn 0.835503 0.548990 -0.023347
vn 0.835520 0.548961 -0.023426
vn 0.834912 0.550000 -0.020558
vn 0.819122 0.573615 -0.002400
vn 0.819122 0.573615 -0.002400
vn 0.819122 0.573615 -0.002400
vn 0.819122 0.573615 -0.002400
vn -0.835500 -0.549000 0.023200
vn -0.835500 -0.549000 0.023200
vn -0.835500 -0.549000 0.023200
vn -0.835500 -0.549000 0.023200
vn -0.819122 -0.573615 0.002400
vn -0.819122 -0.573615 0.002400
vn -0.819122 -0.573615 0.002400
vn -0.819122 -0.573615 0.002400
vn 0.565726 -0.824438 -0.016001
vn 0.565726 -0.824438 -0.016001
vn 0.565726 -0.824438 -0.016001
vn 0.565726 -0.824438 -0.016001
vn -0.294303 0.423804 0.856608
vn -0.294303 0.423804 0.856608
vn -0.294303 0.423804 0.856608
vn -0.294303 0.423804 0.856608
vn -0.501582 0.744573 -0.440484
vn -0.501582 0.744573 -0.440484
vn -0.501582 0.744573 -0.440484
vn -0.501582 0.744573 -0.440484
vn -0.568109 0.821113 0.055001
vn -0.568109 0.821113 0.055001
vn -0.568109 0.821113 0.055001
vn -0.568109 0.821113 0.055001
vn 0.553386 -0.832779 -0.015600
vn 0.553386 -0.832779 -0.015600
vn 0.553386 -0.832779 -0.015600
vn 0.553386 -0.832779 -0.015600
vn -0.556994 0.828791 -0.053499
vn -0.556994 0.828791 -0.053499
vn -0.556994 0.828791 -0.053499
vn -0.556994 0.828791 -0.053499
s 1
g Red_low_poly_car_FrontWindow_Cube_008_Material_014
usemtl blinn6SG
f 4/7/1 2/8/2 5/6/3
f 11/13/4 12/14/5 9/12/6
f 2/8/2 1/9/7 5/6/3
f 5/6/3 1/9/7 3/5/8
f 3/5/8 1/9/7 6/4/9
f 1/9/7 8/10/10 6/4/9
f 6/4/9 8/10/10 14/3/11
f 14/3/11 8/10/10 13/2/12
f 8/10/10 7/11/13 13/2/12
f 13/2/12 7/11/13 10/1/14
f 7/11/13 9/12/6 10/1/14
f 10/1/14 9/12/6 12/14/5
s 3
f 25/17/15 23/18/16 26/16/17
f 18/23/18 19/24/19 16/22/20
f 23/18/16 21/19/21 26/16/17
f 26/16/17 21/19/21 24/15/22
f 24/15/22 21/19/21 27/28/23
f 21/19/21 22/20/24 27/28/23
f 27/28/23 22/20/24 28/27/25
f 22/20/24 15/21/26 28/27/25
f 28/27/25 15/21/26 20/26/27
f 20/26/27 15/21/26 17/25/28
f 15/21/26 16/22/20 17/25/28
f 16/22/20 19/24/19 17/25/28
s 5
f 8/10/29 1/9/30 22/20/31
f 22/20/31 1/9/30 15/21/32
s 6
f 2/8/33 4/7/34 16/22/35
f 16/22/35 4/7/34 18/23/36
s 7
f 5/6/37 3/5/38 19/24/39
f 19/24/39 3/5/38 17/25/40
s 8
f 6/4/41 14/3/42 20/26/43
f 20/26/43 14/3/42 28/27/44
s 9
f 4/7/45 5/6/46 18/23/47
f 18/23/47 5/6/46 19/24/48
s 10
f 1/9/49 2/8/50 15/21/51
f 15/21/51 2/8/50 16/22/52
s 11
f 3/5/53 6/4/54 17/25/55
f 17/25/55 6/4/54 20/26/56
s 12
f 7/11/57 8/10/58 21/19/59
f 21/19/59 8/10/58 22/20/60
s 13
f 11/13/61 9/12/62 25/17/63
f 25/17/63 9/12/62 23/18/64
s 14
f 10/1/65 12/14/66 24/15/67
f 24/15/67 12/14/66 26/16/68
s 15
f 14/3/69 13/2/70 28/27/71
f 28/27/71 13/2/70 27/28/72
s 16
f 12/14/73 11/13/74 26/16/75
f 26/16/75 11/13/74 25/17/76
s 17
f 9/12/77 7/11/78 23/18/79
f 23/18/79 7/11/78 21/19/80
s 18
f 13/2/81 10/1/82 27/28/83
f 27/28/83 10/1/82 24/15/84
s 19
f 34/29/85 32/30/86 33/31/87
f 33/31/87 32/30/86 29/32/88
s 20
f 30/33/89 31/34/90 33/31/91
f 33/31/91 31/34/90 34/29/92
s 21
f 35/35/93 38/36/94 39/37/95
f 39/37/95 38/36/94 40/38/96
s 22
f 36/39/97 39/37/98 37/40/99
f 37/40/99 39/37/98 40/38/100
s 23
f 30/33/101 33/31/102 36/39/103
f 36/39/103 33/31/102 39/37/104
s 24
f 30/33/105 36/39/106 31/34/107
f 31/34/107 36/39/106 37/40/108
s 25
f 29/32/109 32/30/110 35/35/111
f 35/35/111 32/30/110 38/36/112
s 26
f 34/29/113 31/34/114 40/38/115
f 40/38/115 31/34/114 37/40/116
s 27
f 33/31/117 29/32/118 39/37/119
f 39/37/119 29/32/118 35/35/120
s 28
f 32/30/121 34/29/122 38/36/123
f 38/36/123 34/29/122 40/38/124
s 29
f 41/41/125 44/42/126 45/43/127
f 45/43/127 44/42/126 46/44/128
s 30
f 42/45/129 45/43/130 43/46/131
f 43/46/131 45/43/130 46/44/132
s 31
f 52/47/133 50/48/134 51/49/135
f 51/49/135 50/48/134 47/50/136
s 32
f 48/51/137 49/52/138 51/49/139
f 51/49/139 49/52/138 52/47/140
s 33
f 42/45/141 48/51/142 45/43/143
f 45/43/143 48/51/142 51/49/144
s 34
f 42/45/145 43/46/146 48/51/147
f 48/51/147 43/46/146 49/52/148
s 35
f 44/42/149 41/41/150 50/48/151
f 50/48/151 41/41/150 47/50/152
s 36
f 46/44/153 52/47/154 43/46/155
f 43/46/155 52/47/154 49/52/156
s 37
f 41/41/157 45/43/158 47/50/159
f 47/50/159 45/43/158 51/49/160
s 38
f 46/44/161 44/42/162 52/47/163
f 52/47/163 44/42/162 50/48/164
